<?xml version="1.0" encoding="UTF-8"?>
<svg width="311px" height="48px" viewBox="0 0 311 48" version="1.1" xmlns="http://www.w3.org/2000/svg" xmlns:xlink="http://www.w3.org/1999/xlink">
    <!-- Generator: Sketch 64 (93537) - https://sketch.com -->
    <title>BC Common Components Catalogue Header</title>
    <desc>Created with Sketch.</desc>
    <defs>
        <path d="M3.0703125,6.078125 C3.63802083,6.078125 4.14583333,5.99348958 4.59375,5.82421875 L4.59375,5.82421875 L4.59375,5.0234375 C4.34895833,5.09895833 4.11328125,5.16080729 3.88671875,5.20898438 C3.66015625,5.25716146 3.42578125,5.28125 3.18359375,5.28125 C2.62369792,5.28125 2.19596354,5.1015625 1.90039062,4.7421875 C1.60481771,4.3828125 1.45703125,3.85286458 1.45703125,3.15234375 C1.45703125,2.48307292 1.61067708,1.95833333 1.91796875,1.578125 C2.22526042,1.19791667 2.64713542,1.0078125 3.18359375,1.0078125 C3.42057292,1.0078125 3.64648438,1.04231771 3.86132812,1.11132812 C4.07617188,1.18033854 4.27994792,1.26041667 4.47265625,1.3515625 L4.47265625,1.3515625 L4.80859375,0.57421875 C4.31380208,0.329427083 3.77473958,0.20703125 3.19140625,0.20703125 C2.63671875,0.20703125 2.15364583,0.325520833 1.7421875,0.5625 C1.33072917,0.799479167 1.01627604,1.140625 0.798828125,1.5859375 C0.581380208,2.03125 0.47265625,2.55078125 0.47265625,3.14453125 C0.47265625,4.08723958 0.696614583,4.81184896 1.14453125,5.31835938 C1.59244792,5.82486979 2.234375,6.078125 3.0703125,6.078125 Z M9.15340909,6.078125 C10.0049716,6.078125 10.6631747,5.8203125 11.1280185,5.3046875 C11.5928622,4.7890625 11.8252841,4.06640625 11.8252841,3.13671875 C11.8252841,2.20442708 11.5935133,1.48177083 11.1299716,0.96875 C10.6664299,0.455729167 10.0101799,0.19921875 9.16122159,0.19921875 C8.29924242,0.19921875 7.63583097,0.451822917 7.17098722,0.95703125 C6.70614347,1.46223958 6.47372159,2.18619792 6.47372159,3.12890625 C6.47372159,4.07161458 6.70484138,4.79882812 7.16708097,5.31054688 C7.62932055,5.82226562 8.29142992,6.078125 9.15340909,6.078125 Z M9.15340909,5.28125 C8.59611742,5.28125 8.17554451,5.09960938 7.89169034,4.73632812 C7.60783617,4.37304688 7.46590909,3.83984375 7.46590909,3.13671875 C7.46590909,2.43619792 7.60848722,1.90494792 7.89364347,1.54296875 C8.17879972,1.18098958 8.60132576,1 9.16122159,1 C9.71590909,1 10.1332268,1.18098958 10.4131747,1.54296875 C10.6931226,1.90494792 10.8330966,2.43619792 10.8330966,3.13671875 C10.8330966,3.84765625 10.6918205,4.3828125 10.4092685,4.7421875 C10.1267164,5.1015625 9.70809659,5.28125 9.15340909,5.28125 Z M14.9904119,6 L14.9904119,3.22265625 C14.9904119,2.60286458 14.9682765,1.93880208 14.9240057,1.23046875 L14.9240057,1.23046875 L14.9552557,1.23046875 L16.6115057,6 L17.4357244,6 L19.1505682,1.23828125 L19.1818182,1.23828125 C19.1714015,1.33463542 19.1590317,1.61067708 19.1447088,2.06640625 C19.1303859,2.52213542 19.1232244,2.89192708 19.1232244,3.17578125 L19.1232244,3.17578125 L19.1232244,6 L20.0216619,6 L20.0216619,0.2890625 L18.7013494,0.2890625 L17.0685369,4.83203125 L17.0450994,4.83203125 L15.4591619,0.2890625 L14.1427557,0.2890625 L14.1427557,6 L14.9904119,6 Z M23.4641335,6 L23.4641335,3.22265625 C23.4641335,2.60286458 23.4419981,1.93880208 23.3977273,1.23046875 L23.3977273,1.23046875 L23.4289773,1.23046875 L25.0852273,6 L25.909446,6 L27.6242898,1.23828125 L27.6555398,1.23828125 C27.6451231,1.33463542 27.6327533,1.61067708 27.6184304,2.06640625 C27.6041075,2.52213542 27.596946,2.89192708 27.596946,3.17578125 L27.596946,3.17578125 L27.596946,6 L28.4953835,6 L28.4953835,0.2890625 L27.175071,0.2890625 L25.5422585,4.83203125 L25.518821,4.83203125 L23.9328835,0.2890625 L22.6164773,0.2890625 L22.6164773,6 L23.4641335,6 Z M33.4886364,6.078125 C34.3401989,6.078125 34.998402,5.8203125 35.4632457,5.3046875 C35.9280895,4.7890625 36.1605114,4.06640625 36.1605114,3.13671875 C36.1605114,2.20442708 35.9287405,1.48177083 35.4651989,0.96875 C35.0016572,0.455729167 34.3454072,0.19921875 33.4964489,0.19921875 C32.6344697,0.19921875 31.9710582,0.451822917 31.5062145,0.95703125 C31.0413707,1.46223958 30.8089489,2.18619792 30.8089489,3.12890625 C30.8089489,4.07161458 31.0400687,4.79882812 31.5023082,5.31054688 C31.9645478,5.82226562 32.6266572,6.078125 33.4886364,6.078125 Z M33.4886364,5.28125 C32.9313447,5.28125 32.5107718,5.09960938 32.2269176,4.73632812 C31.9430634,4.37304688 31.8011364,3.83984375 31.8011364,3.13671875 C31.8011364,2.43619792 31.9437145,1.90494792 32.2288707,1.54296875 C32.514027,1.18098958 32.936553,1 33.4964489,1 C34.0511364,1 34.4684541,1.18098958 34.748402,1.54296875 C35.0283499,1.90494792 35.1683239,2.43619792 35.1683239,3.13671875 C35.1683239,3.84765625 35.0270478,4.3828125 34.7444957,4.7421875 C34.4619437,5.1015625 34.0433239,5.28125 33.4886364,5.28125 Z M39.3256392,6 L39.3256392,3.03125 C39.3256392,2.63020833 39.30741,2.1875 39.2709517,1.703125 L39.2709517,1.703125 L39.2514205,1.44921875 L39.2826705,1.44921875 L42.0912642,6 L43.2357955,6 L43.2357955,0.2890625 L42.3803267,0.2890625 L42.3803267,3.28125 C42.3803267,3.4921875 42.3881392,3.78580729 42.4037642,4.16210938 C42.4193892,4.53841146 42.4298059,4.75651042 42.4350142,4.81640625 L42.4350142,4.81640625 L42.4115767,4.81640625 L39.6107955,0.2890625 L38.477983,0.2890625 L38.477983,6 L39.3256392,6 Z M51.3199574,6.078125 C51.8876657,6.078125 52.3954782,5.99348958 52.8433949,5.82421875 L52.8433949,5.82421875 L52.8433949,5.0234375 C52.5986032,5.09895833 52.3629261,5.16080729 52.1363636,5.20898438 C51.9098011,5.25716146 51.6754261,5.28125 51.4332386,5.28125 C50.8733428,5.28125 50.4456084,5.1015625 50.1500355,4.7421875 C49.8544626,4.3828125 49.7066761,3.85286458 49.7066761,3.15234375 C49.7066761,2.48307292 49.860322,1.95833333 50.1676136,1.578125 C50.4749053,1.19791667 50.8967803,1.0078125 51.4332386,1.0078125 C51.6702178,1.0078125 51.8961293,1.04231771 52.110973,1.11132812 C52.3258168,1.18033854 52.5295928,1.26041667 52.7223011,1.3515625 L52.7223011,1.3515625 L53.0582386,0.57421875 C52.563447,0.329427083 52.0243845,0.20703125 51.4410511,0.20703125 C50.8863636,0.20703125 50.4032907,0.325520833 49.9918324,0.5625 C49.5803741,0.799479167 49.2659209,1.140625 49.048473,1.5859375 C48.8310251,2.03125 48.7223011,2.55078125 48.7223011,3.14453125 C48.7223011,4.08723958 48.9462595,4.81184896 49.3941761,5.31835938 C49.8420928,5.82486979 50.4840199,6.078125 51.3199574,6.078125 Z M57.403054,6.078125 C58.2546165,6.078125 58.9128196,5.8203125 59.3776634,5.3046875 C59.8425071,4.7890625 60.074929,4.06640625 60.074929,3.13671875 C60.074929,2.20442708 59.8431581,1.48177083 59.3796165,0.96875 C58.9160748,0.455729167 58.2598248,0.19921875 57.4108665,0.19921875 C56.5488873,0.19921875 55.8854759,0.451822917 55.4206321,0.95703125 C54.9557884,1.46223958 54.7233665,2.18619792 54.7233665,3.12890625 C54.7233665,4.07161458 54.9544863,4.79882812 55.4167259,5.31054688 C55.8789654,5.82226562 56.5410748,6.078125 57.403054,6.078125 Z M57.403054,5.28125 C56.8457623,5.28125 56.4251894,5.09960938 56.1413352,4.73632812 C55.8574811,4.37304688 55.715554,3.83984375 55.715554,3.13671875 C55.715554,2.43619792 55.8581321,1.90494792 56.1432884,1.54296875 C56.4284446,1.18098958 56.8509706,1 57.4108665,1 C57.965554,1 58.3828717,1.18098958 58.6628196,1.54296875 C58.9427675,1.90494792 59.0827415,2.43619792 59.0827415,3.13671875 C59.0827415,3.84765625 58.9414654,4.3828125 58.6589134,4.7421875 C58.3763613,5.1015625 57.9577415,5.28125 57.403054,5.28125 Z M63.2400568,6 L63.2400568,3.22265625 C63.2400568,2.60286458 63.2179214,1.93880208 63.1736506,1.23046875 L63.1736506,1.23046875 L63.2049006,1.23046875 L64.8611506,6 L65.6853693,6 L67.4002131,1.23828125 L67.4314631,1.23828125 C67.4210464,1.33463542 67.4086766,1.61067708 67.3943537,2.06640625 C67.3800308,2.52213542 67.3728693,2.89192708 67.3728693,3.17578125 L67.3728693,3.17578125 L67.3728693,6 L68.2713068,6 L68.2713068,0.2890625 L66.9509943,0.2890625 L65.3181818,4.83203125 L65.2947443,4.83203125 L63.7088068,0.2890625 L62.3924006,0.2890625 L62.3924006,6 L63.2400568,6 Z M71.7997159,6 L71.7997159,3.86328125 L72.3934659,3.86328125 C73.1148201,3.86328125 73.6708097,3.70442708 74.0614347,3.38671875 C74.4520597,3.06901042 74.6473722,2.61197917 74.6473722,2.015625 C74.6473722,1.44791667 74.4696378,1.01822917 74.114169,0.7265625 C73.7587003,0.434895833 73.2241951,0.2890625 72.5106534,0.2890625 L72.5106534,0.2890625 L70.8661222,0.2890625 L70.8661222,6 L71.7997159,6 Z M72.2958097,3.078125 L71.7997159,3.078125 L71.7997159,1.0703125 L72.4481534,1.0703125 C72.8726326,1.0703125 73.1851326,1.15104167 73.3856534,1.3125 C73.5861742,1.47395833 73.6864347,1.71875 73.6864347,2.046875 C73.6864347,2.40104167 73.5744555,2.66145833 73.3504972,2.828125 C73.1265388,2.99479167 72.7749763,3.078125 72.2958097,3.078125 L72.2958097,3.078125 Z M79.2773438,6.078125 C80.1289063,6.078125 80.7871094,5.8203125 81.2519531,5.3046875 C81.7167969,4.7890625 81.9492188,4.06640625 81.9492188,3.13671875 C81.9492188,2.20442708 81.7174479,1.48177083 81.2539063,0.96875 C80.7903646,0.455729167 80.1341146,0.19921875 79.2851563,0.19921875 C78.4231771,0.19921875 77.7597656,0.451822917 77.2949219,0.95703125 C76.8300781,1.46223958 76.5976563,2.18619792 76.5976563,3.12890625 C76.5976563,4.07161458 76.828776,4.79882812 77.2910156,5.31054688 C77.7532552,5.82226562 78.4153646,6.078125 79.2773438,6.078125 Z M79.2773438,5.28125 C78.7200521,5.28125 78.2994792,5.09960938 78.015625,4.73632812 C77.7317708,4.37304688 77.5898438,3.83984375 77.5898438,3.13671875 C77.5898438,2.43619792 77.7324219,1.90494792 78.0175781,1.54296875 C78.3027344,1.18098958 78.7252604,1 79.2851563,1 C79.8398438,1 80.2571615,1.18098958 80.5371094,1.54296875 C80.8170573,1.90494792 80.9570313,2.43619792 80.9570313,3.13671875 C80.9570313,3.84765625 80.8157552,4.3828125 80.5332031,4.7421875 C80.250651,5.1015625 79.8320313,5.28125 79.2773438,5.28125 Z M85.1143466,6 L85.1143466,3.03125 C85.1143466,2.63020833 85.0961174,2.1875 85.0596591,1.703125 L85.0596591,1.703125 L85.0401278,1.44921875 L85.0713778,1.44921875 L87.8799716,6 L89.0245028,6 L89.0245028,0.2890625 L88.1690341,0.2890625 L88.1699716,3.41773438 C88.1724716,3.61294271 88.1799716,3.86106771 88.1924716,4.16210938 C88.2041903,4.44433594 88.2129794,4.63757324 88.2188388,4.74182129 L88.2237216,4.81640625 L88.2002841,4.81640625 L85.3995028,0.2890625 L84.2666903,0.2890625 L84.2666903,6 L85.1143466,6 Z M94.8536932,6 L94.8536932,5.20703125 L92.5568182,5.20703125 L92.5568182,3.4140625 L94.7091619,3.4140625 L94.7091619,2.6328125 L92.5568182,2.6328125 L92.5568182,1.078125 L94.8536932,1.078125 L94.8536932,0.2890625 L91.6232244,0.2890625 L91.6232244,6 L94.8536932,6 Z M98.0266335,6 L98.0266335,3.03125 C98.0266335,2.63020833 98.0084044,2.1875 97.971946,1.703125 L97.971946,1.703125 L97.9524148,1.44921875 L97.9836648,1.44921875 L100.792259,6 L101.93679,6 L101.93679,0.2890625 L101.081321,0.2890625 L101.081321,3.28125 C101.081321,3.4921875 101.089134,3.78580729 101.104759,4.16210938 C101.120384,4.53841146 101.1308,4.75651042 101.136009,4.81640625 L101.136009,4.81640625 L101.112571,4.81640625 L98.3117898,0.2890625 L97.1789773,0.2890625 L97.1789773,6 L98.0266335,6 Z M106.508168,6 L106.508168,1.08984375 L108.187855,1.08984375 L108.187855,0.2890625 L103.894886,0.2890625 L103.894886,1.08984375 L105.574574,1.08984375 L105.574574,6 L106.508168,6 Z M111.37642,6.078125 C112.022254,6.078125 112.528764,5.93359375 112.895952,5.64453125 C113.263139,5.35546875 113.446733,4.95703125 113.446733,4.44921875 C113.446733,4.19140625 113.40116,3.96744792 113.310014,3.77734375 C113.218868,3.58723958 113.075639,3.41666667 112.880327,3.265625 C112.685014,3.11458333 112.377723,2.95182292 111.958452,2.77734375 C111.586056,2.62369792 111.328243,2.5 111.185014,2.40625 C111.041785,2.3125 110.93892,2.21289062 110.87642,2.10742188 C110.81392,2.00195312 110.78267,1.875 110.78267,1.7265625 C110.78267,1.51041667 110.860795,1.33658854 111.017045,1.20507812 C111.173295,1.07356771 111.402462,1.0078125 111.704545,1.0078125 C112.102983,1.0078125 112.556108,1.11458333 113.06392,1.328125 L113.06392,1.328125 L113.360795,0.56640625 C112.819129,0.326822917 112.274858,0.20703125 111.727983,0.20703125 C111.15767,0.20703125 110.703243,0.34375 110.364702,0.6171875 C110.02616,0.890625 109.856889,1.265625 109.856889,1.7421875 C109.856889,2.12239583 109.96366,2.44791667 110.177202,2.71875 C110.390743,2.98958333 110.757931,3.23046875 111.278764,3.44140625 C111.783973,3.64453125 112.117306,3.8203125 112.278764,3.96875 C112.440223,4.1171875 112.520952,4.29817708 112.520952,4.51171875 C112.520952,4.74869792 112.433061,4.9375 112.25728,5.078125 C112.081499,5.21875 111.808712,5.2890625 111.43892,5.2890625 C111.186316,5.2890625 110.91353,5.25390625 110.620561,5.18359375 C110.327592,5.11328125 110.0509,5.01692708 109.790483,4.89453125 L109.790483,4.89453125 L109.790483,5.77734375 C110.201941,5.97786458 110.730587,6.078125 111.37642,6.078125 Z" id="path-1"></path>
        <path d="M10.2304688,31.2636719 C12.1816406,31.2636719 13.9482422,30.934082 15.5302734,30.2749023 L15.5302734,30.2749023 L15.5302734,26.847168 C13.6054688,27.5239258 11.9663086,27.8623047 10.612793,27.8623047 C7.38720703,27.8623047 5.77441406,25.7133789 5.77441406,21.4155273 C5.77441406,19.3500977 6.19628906,17.739502 7.04003906,16.5837402 C7.88378906,15.4279785 9.07470703,14.8500977 10.612793,14.8500977 C11.315918,14.8500977 12.0322266,14.9775391 12.7617188,15.2324219 C13.4912109,15.4873047 14.2163086,15.7861328 14.9370117,16.1289062 L14.9370117,16.1289062 L16.2553711,12.8066406 C14.3657227,11.9013672 12.4848633,11.4487305 10.612793,11.4487305 C8.77587891,11.4487305 7.17407227,11.8508301 5.80737305,12.6550293 C4.44067383,13.4592285 3.39257812,14.6149902 2.66308594,16.1223145 C1.93359375,17.6296387 1.56884766,19.3852539 1.56884766,21.3891602 C1.56884766,24.5708008 2.31152344,27.0119629 3.796875,28.7126465 C5.28222656,30.4133301 7.42675781,31.2636719 10.2304688,31.2636719 Z M22.8999023,31.2636719 C24.0512695,31.2636719 24.9851074,31.098877 25.701416,30.7692871 C26.4177246,30.4396973 27.1142578,29.8486328 27.7910156,28.9960938 L27.7910156,28.9960938 L27.8964844,28.9960938 L28.6743164,31 L31.4824219,31 L31.4824219,21.1782227 C31.4824219,19.4204102 30.9550781,18.1108398 29.9003906,17.2495117 C28.8457031,16.3881836 27.3295898,15.9575195 25.3520508,15.9575195 C23.2866211,15.9575195 21.4057617,16.4013672 19.7094727,17.2890625 L19.7094727,17.2890625 L21.0410156,20.0048828 C22.6318359,19.2929688 24.0161133,18.9370117 25.1938477,18.9370117 C26.7231445,18.9370117 27.487793,19.684082 27.487793,21.1782227 L27.487793,21.1782227 L27.487793,21.8242188 L24.9301758,21.9033203 C22.7241211,21.9824219 21.0739746,22.3933105 19.9797363,23.1359863 C18.885498,23.8786621 18.3383789,25.0322266 18.3383789,26.5966797 C18.3383789,28.0908203 18.744873,29.2421875 19.5578613,30.0507812 C20.3708496,30.859375 21.4848633,31.2636719 22.8999023,31.2636719 Z M24.4160156,28.3237305 C23.1152344,28.3237305 22.4648438,27.7568359 22.4648438,26.6230469 C22.4648438,25.8320312 22.7504883,25.2431641 23.3217773,24.8564453 C23.8930664,24.4697266 24.7631836,24.2587891 25.9321289,24.2236328 L25.9321289,24.2236328 L27.487793,24.1708984 L27.487793,25.3837891 C27.487793,26.2714844 27.2087402,26.9833984 26.6506348,27.5195312 C26.0925293,28.0556641 25.3476562,28.3237305 24.4160156,28.3237305 Z M40.6713867,31.2636719 C42.1303711,31.2636719 43.3608398,31.0395508 44.362793,30.5913086 L44.362793,30.5913086 L44.362793,27.5986328 C43.378418,27.90625 42.534668,28.0600586 41.831543,28.0600586 C41.3041992,28.0600586 40.880127,27.9238281 40.5593262,27.6513672 C40.2385254,27.3789062 40.078125,26.9570312 40.078125,26.3857422 L40.078125,26.3857422 L40.078125,19.2797852 L44.2045898,19.2797852 L44.2045898,16.2607422 L40.078125,16.2607422 L40.078125,13.1230469 L37.5073242,13.1230469 L36.347168,16.234375 L34.1323242,17.5791016 L34.1323242,19.2797852 L36.0571289,19.2797852 L36.0571289,26.3857422 C36.0571289,28.0117188 36.4240723,29.2312012 37.157959,30.0441895 C37.8918457,30.8571777 39.0629883,31.2636719 40.6713867,31.2636719 Z M50.9282227,31.2636719 C52.0795898,31.2636719 53.0134277,31.098877 53.7297363,30.7692871 C54.4460449,30.4396973 55.1425781,29.8486328 55.8193359,28.9960938 L55.8193359,28.9960938 L55.9248047,28.9960938 L56.7026367,31 L59.5107422,31 L59.5107422,21.1782227 C59.5107422,19.4204102 58.9833984,18.1108398 57.9287109,17.2495117 C56.8740234,16.3881836 55.3579102,15.9575195 53.3803711,15.9575195 C51.3149414,15.9575195 49.434082,16.4013672 47.737793,17.2890625 L47.737793,17.2890625 L49.0693359,20.0048828 C50.6601562,19.2929688 52.0444336,18.9370117 53.222168,18.9370117 C54.7514648,18.9370117 55.5161133,19.684082 55.5161133,21.1782227 L55.5161133,21.1782227 L55.5161133,21.8242188 L52.9584961,21.9033203 C50.7524414,21.9824219 49.1022949,22.3933105 48.0080566,23.1359863 C46.9138184,23.8786621 46.3666992,25.0322266 46.3666992,26.5966797 C46.3666992,28.0908203 46.7731934,29.2421875 47.5861816,30.0507812 C48.3991699,30.859375 49.5131836,31.2636719 50.9282227,31.2636719 Z M52.4443359,28.3237305 C51.1435547,28.3237305 50.4931641,27.7568359 50.4931641,26.6230469 C50.4931641,25.8320312 50.7788086,25.2431641 51.3500977,24.8564453 C51.9213867,24.4697266 52.7915039,24.2587891 53.9604492,24.2236328 L53.9604492,24.2236328 L55.5161133,24.1708984 L55.5161133,25.3837891 C55.5161133,26.2714844 55.2370605,26.9833984 54.6789551,27.5195312 C54.1208496,28.0556641 53.3759766,28.3237305 52.4443359,28.3237305 Z M67.6713867,31 L67.6713867,10.4863281 L63.6503906,10.4863281 L63.6503906,31 L67.6713867,31 Z M78.0996094,31.2636719 C80.3583984,31.2636719 82.1206055,30.5869141 83.3862305,29.2333984 C84.6518555,27.8798828 85.284668,26.003418 85.284668,23.6040039 C85.284668,22.0571289 84.9946289,20.7080078 84.4145508,19.5566406 C83.8344727,18.4052734 83.0039062,17.5219727 81.9228516,16.9067383 C80.8417969,16.2915039 79.59375,15.9838867 78.1787109,15.9838867 C75.9023438,15.9838867 74.1357422,16.6518555 72.8789062,17.987793 C71.6220703,19.3237305 70.9936523,21.1958008 70.9936523,23.6040039 C70.9936523,25.1508789 71.2836914,26.5043945 71.8637695,27.6645508 C72.4438477,28.824707 73.2744141,29.7145996 74.3554688,30.3342285 C75.4365234,30.9538574 76.6845703,31.2636719 78.0996094,31.2636719 Z M78.1523438,28.0336914 C77.0712891,28.0336914 76.2912598,27.6601562 75.8122559,26.9130859 C75.333252,26.1660156 75.09375,25.0629883 75.09375,23.6040039 C75.09375,22.1362305 75.3310547,21.0397949 75.8056641,20.3146973 C76.2802734,19.5895996 77.0537109,19.2270508 78.1259766,19.2270508 C79.2070312,19.2270508 79.9848633,19.5917969 80.4594727,20.3212891 C80.934082,21.0507812 81.1713867,22.1450195 81.1713867,23.6040039 C81.1713867,25.0717773 80.9362793,26.177002 80.4660645,26.9196777 C79.9958496,27.6623535 79.2246094,28.0336914 78.1523438,28.0336914 Z M92.9179688,37.4863281 C95.6074219,37.4863281 97.6706543,37.0117188 99.107666,36.0625 C100.544678,35.1132812 101.263184,33.7773438 101.263184,32.0546875 C101.263184,30.7099609 100.839111,29.6904297 99.9909668,28.9960938 C99.1428223,28.3017578 97.9101562,27.9545898 96.2929688,27.9545898 L96.2929688,27.9545898 L93.7880859,27.9545898 C92.3115234,27.9545898 91.5732422,27.6645508 91.5732422,27.0844727 C91.5732422,26.6977539 91.7797852,26.3461914 92.1928711,26.0297852 L92.1928711,26.0297852 L92.7861328,26.0957031 L93.5112305,26.1352539 C95.4711914,26.1352539 97.0026855,25.6936035 98.1057129,24.8103027 C99.2087402,23.927002 99.7602539,22.6943359 99.7602539,21.1123047 C99.7602539,20.2949219 99.5493164,19.5566406 99.1274414,18.8974609 L99.1274414,18.8974609 L101.43457,18.3041992 L101.43457,16.2607422 L96.2929688,16.2607422 C96.1347656,16.2255859 95.7722168,16.1706543 95.2053223,16.0959473 C94.6384277,16.0212402 94.1484375,15.9838867 93.7353516,15.9838867 C91.7929688,15.9838867 90.2988281,16.4233398 89.2529297,17.3022461 C88.2070312,18.1811523 87.684082,19.4248047 87.684082,21.0332031 C87.684082,22.0351562 87.9104004,22.9052734 88.3630371,23.6435547 C88.8156738,24.3818359 89.4287109,24.9179688 90.2021484,25.2519531 C89.5869141,25.6123047 89.1166992,25.979248 88.7915039,26.3527832 C88.4663086,26.7263184 88.3037109,27.1943359 88.3037109,27.7568359 C88.3037109,28.2050781 88.4575195,28.6291504 88.7651367,29.0290527 C89.0727539,29.4289551 89.4331055,29.7167969 89.8461914,29.8925781 C88.7739258,30.1474609 87.9609375,30.5737305 87.4072266,31.1713867 C86.8535156,31.769043 86.5766602,32.5117188 86.5766602,33.3994141 C86.5766602,34.6914062 87.1193848,35.6955566 88.204834,36.4118652 C89.2902832,37.1281738 90.8613281,37.4863281 92.9179688,37.4863281 Z M93.7353516,23.6831055 C92.9882812,23.6831055 92.432373,23.4501953 92.067627,22.984375 C91.7028809,22.5185547 91.5205078,21.8857422 91.5205078,21.0859375 C91.5205078,19.3105469 92.2587891,18.4228516 93.7353516,18.4228516 C95.1943359,18.4228516 95.9238281,19.3105469 95.9238281,21.0859375 C95.9238281,21.8857422 95.7480469,22.5185547 95.3964844,22.984375 C95.0449219,23.4501953 94.4912109,23.6831055 93.7353516,23.6831055 Z M93.0893555,34.862793 C92.1313477,34.862793 91.3864746,34.7045898 90.8547363,34.3881836 C90.322998,34.0717773 90.0571289,33.6367188 90.0571289,33.0830078 C90.0571289,32.5117188 90.3054199,32.0524902 90.802002,31.7053223 C91.298584,31.3581543 91.9160156,31.1845703 92.6542969,31.1845703 L92.6542969,31.1845703 L94.7373047,31.1845703 C95.7480469,31.1845703 96.4951172,31.2900391 96.9785156,31.5009766 C97.4619141,31.7119141 97.7036133,32.0942383 97.7036133,32.6479492 C97.7036133,33.3334961 97.2949219,33.8740234 96.4775391,34.2695312 C95.6601562,34.6650391 94.5307617,34.862793 93.0893555,34.862793 Z M109.015137,31.2636719 C110.025879,31.2636719 110.926758,31.0769043 111.717773,30.7033691 C112.508789,30.329834 113.119629,29.800293 113.550293,29.1147461 L113.550293,29.1147461 L113.76123,29.1147461 L114.301758,31 L117.386719,31 L117.386719,16.2607422 L113.365723,16.2607422 L113.365723,23.1953125 C113.365723,24.9355469 113.115234,26.1813965 112.614258,26.9328613 C112.113281,27.6843262 111.300293,28.0600586 110.175293,28.0600586 C109.349121,28.0600586 108.74707,27.7941895 108.369141,27.2624512 C107.991211,26.7307129 107.802246,25.9331055 107.802246,24.8696289 L107.802246,24.8696289 L107.802246,16.2607422 L103.78125,16.2607422 L103.78125,25.871582 C103.78125,27.6118164 104.220703,28.9455566 105.099609,29.8728027 C105.978516,30.8000488 107.283691,31.2636719 109.015137,31.2636719 Z M128.276367,31.2636719 C129.427734,31.2636719 130.40332,31.1779785 131.203125,31.0065918 C132.00293,30.8352051 132.754395,30.5737305 133.45752,30.222168 L133.45752,30.222168 L133.45752,27.1108398 C132.596191,27.5151367 131.77002,27.8095703 130.979004,27.9941406 C130.187988,28.1787109 129.348633,28.2709961 128.460938,28.2709961 C127.318359,28.2709961 126.430664,27.9501953 125.797852,27.3085938 C125.165039,26.6669922 124.82666,25.7749023 124.782715,24.6323242 L124.782715,24.6323242 L134.288086,24.6323242 L134.288086,22.6811523 C134.288086,20.5893555 133.708008,18.9501953 132.547852,17.7636719 C131.387695,16.5771484 129.766113,15.9838867 127.683105,15.9838867 C125.503418,15.9838867 123.796143,16.6584473 122.561279,18.0075684 C121.326416,19.3566895 120.708984,21.2661133 120.708984,23.7358398 C120.708984,26.1352539 121.376953,27.9897461 122.712891,29.2993164 C124.048828,30.6088867 125.90332,31.2636719 128.276367,31.2636719 Z M130.517578,21.9560547 L124.875,21.9560547 C124.945312,20.9628906 125.222168,20.1960449 125.705566,19.6555176 C126.188965,19.1149902 126.856934,18.8447266 127.709473,18.8447266 C128.562012,18.8447266 129.23877,19.1149902 129.739746,19.6555176 C130.240723,20.1960449 130.5,20.9628906 130.517578,21.9560547 L130.517578,21.9560547 Z" id="path-2"></path>
    </defs>
    <g id="Page-1" stroke="none" stroke-width="1" fill="none" fill-rule="evenodd">
        <g id="BC-Common-Components-Catalogue-Header">
            <g id="Group" transform="translate(176.000000, 9.000000)" fill-rule="nonzero">
                <g id="Group-2">
                    <g id="COMMONCOMPONENTS">
                        <use fill="#000000" xlink:href="#path-1"></use>
                        <use fill="#FFFFFF" xlink:href="#path-1"></use>
                    </g>
                    <g id="Catalogue">
                        <use fill="#000000" xlink:href="#path-2"></use>
                        <use fill="#FFFFFF" xlink:href="#path-2"></use>
                    </g>
                </g>
            </g>
            <g id="Logo" transform="translate(0.000000, 2.000000)" fill-rule="nonzero">
                <g id="Group_14" transform="translate(63.831000, 7.924000)" fill="#FFFFFF">
                    <g id="Group_13">
                        <g id="Group_12">
                            <path d="M12.055,3.444 C12.055,2.074 11.95,1.716 11.043,1.653 L10.411,1.611 C10.306,1.527 10.327,1.168 10.432,1.147 C11.532,1.042 12.919,0.999 14.832,0.999 C15.9994697,0.93290729 17.1681793,1.10506656 18.267,1.505 C19.2243262,1.86030981 19.8505352,2.78415886 19.826,3.805 C19.826,5.133 18.962,5.805 17.74,6.334 C17.74,6.524 17.909,6.566 18.119,6.608 C19.6660773,6.81778854 20.829271,8.12404659 20.859,9.685 C20.859,11.813 19.11,13.267 15.422,13.267 C14.832,13.267 13.822,13.204 12.977,13.204 C12.071,13.204 11.377,13.246 10.617,13.267 C10.4775682,13.1503128 10.4587872,12.9428275 10.575,12.803 L10.933,12.74 C12.008,12.571 12.05,12.382 12.05,10.44 L12.055,3.444 Z M13.741,5.889 C13.741,6.395 13.762,6.437 14.795,6.395 C16.881,6.332 17.995,5.763 17.995,4.035 C17.995,2.223 16.495,1.548 14.939,1.548 C14.6195494,1.53601188 14.3000844,1.57139567 13.991,1.653 C13.78,1.716 13.691,1.801 13.691,2.138 L13.691,5.889 L13.741,5.889 Z M13.741,10.167 C13.6707519,10.8613035 13.8182328,11.5602647 14.163,12.167 C14.6102051,12.5538278 15.1981959,12.7371447 15.786,12.673 C17.598,12.673 18.986,11.935 18.986,10.102 C18.986,8.648 18.164,6.941 14.919,6.941 C13.819,6.941 13.739,7.046 13.739,7.426 L13.741,10.167 Z" id="Path_335"></path>
                            <path d="M35.068,5.257 C35.068,3.592 35.026,3.318 33.993,3.234 L33.55,3.192 C33.445,3.129 33.487,2.855 33.592,2.792 C34.456,2.834 35.067,2.834 35.784,2.834 C36.484,2.834 37.069,2.813 37.955,2.792 C38.06,2.834 38.102,3.129 37.997,3.192 L37.554,3.234 C36.521,3.318 36.479,3.571 36.479,5.257 L36.479,10.862 C36.479,12.527 36.521,12.762 37.554,12.862 L37.997,12.904 C38.102,12.967 38.06,13.241 37.955,13.304 C37.091,13.262 36.48,13.262 35.784,13.262 C35.046,13.262 34.456,13.283 33.592,13.304 C33.4722995,13.203875 33.4537071,13.0268043 33.55,12.904 L33.993,12.862 C35.026,12.757 35.068,12.525 35.068,10.862 L35.068,5.257 Z" id="Path_336"></path>
                            <path d="M44.761,10.883 C44.761,12.527 44.803,12.783 45.751,12.843 L46.278,12.885 C46.383,12.948 46.341,13.222 46.236,13.285 C45.309,13.243 44.736,13.243 44.087,13.243 C43.438,13.243 42.865,13.264 41.811,13.285 C41.706,13.243 41.685,12.969 41.811,12.885 L42.401,12.843 C43.328,12.759 43.413,12.527 43.413,10.883 L43.413,3.866 C43.413,3.381 43.413,3.36 42.928,3.36 L42.022,3.36 C41.3225178,3.28068879 40.6156629,3.42045247 39.999,3.76 C39.6685607,4.06236242 39.4154791,4.43958431 39.261,4.86 C39.1143125,4.93655376 38.9335575,4.89147233 38.84,4.755 C39.0988333,3.98915298 39.3099054,3.20798593 39.472,2.416 C39.5749493,2.38430662 39.6850507,2.38430662 39.788,2.416 C39.893,2.922 40.42,2.901 41.179,2.901 L47.817,2.901 C48.702,2.901 48.85,2.859 49.102,2.458 C49.2018808,2.41403038 49.3180341,2.43029185 49.402,2.5 C49.2083518,3.28582713 49.1199121,4.09388965 49.139,4.903 C49.076,5.029 48.802,5.029 48.718,4.924 C48.7057711,4.50595322 48.5662189,4.1016007 48.318,3.765 C47.7392411,3.44379624 47.0771374,3.304406 46.418,3.365 L45.259,3.365 C44.774,3.365 44.774,3.386 44.774,3.892 L44.774,10.892 L44.761,10.883 Z" id="Path_337"></path>
                            <path d="M51.779,5.257 C51.779,3.592 51.737,3.318 50.704,3.234 L50.261,3.192 C50.156,3.129 50.198,2.855 50.303,2.792 C51.167,2.834 51.778,2.834 52.495,2.834 C53.195,2.834 53.781,2.813 54.666,2.792 C54.771,2.834 54.813,3.129 54.708,3.192 L54.265,3.234 C53.232,3.318 53.19,3.571 53.19,5.257 L53.19,10.862 C53.19,12.527 53.232,12.762 54.265,12.862 L54.708,12.904 C54.813,12.967 54.771,13.241 54.666,13.304 C53.802,13.262 53.191,13.262 52.495,13.262 C51.757,13.262 51.167,13.283 50.303,13.304 C50.1832995,13.203875 50.1647071,13.0268043 50.261,12.904 L50.704,12.862 C51.737,12.757 51.779,12.525 51.779,10.862 L51.779,5.257 Z" id="Path_338"></path>
                            <path d="M59.597,13.454 C58.6013394,13.4909416 57.6113339,13.2886197 56.71,12.864 C56.404822,12.1643368 56.2332044,11.4137643 56.204,10.651 C56.288,10.546 56.583,10.503 56.647,10.609 C57.0465016,12.0334189 58.368523,12.9997339 59.847,12.948 C61.406,12.948 62.165,12.084 62.165,11.136 C62.165,10.436 61.996,9.682 60.648,8.923 L58.878,7.954 C57.7778092,7.47472566 57.0158685,6.44610564 56.878,5.254 C56.878,3.754 58.248,2.554 60.671,2.554 C61.2525524,2.56712629 61.8313762,2.63780442 62.399,2.765 C62.6125461,2.81889772 62.8317654,2.84709743 63.052,2.849 C63.2696173,3.46530041 63.3834962,4.11343043 63.389,4.767 C63.305,4.851 63.01,4.915 62.925,4.809 C62.6565812,3.6604967 61.5669831,2.89790725 60.396,3.039 C58.584,3.039 58.183,4.072 58.183,4.788 C58.183,5.694 59.068,6.369 59.764,6.727 L61.239,7.507 C62.419,8.118 63.5570005,9.024 63.5570005,10.52 C63.558,12.274 62.02,13.454 59.597,13.454 Z" id="Path_339"></path>
                            <path d="M68.953,8.165 C68.131,8.165 68.11,8.207 68.11,8.671 L68.11,10.884 C68.11,12.528 68.194,12.76 69.143,12.844 L69.628,12.886 C69.733,12.949 69.691,13.223 69.586,13.286 C68.68,13.244 68.086,13.244 67.437,13.244 C66.699,13.244 66.13,13.286 65.477,13.286 C65.372,13.244 65.351,12.986 65.435,12.886 L65.73,12.844 C66.678,12.696 66.72,12.528 66.72,10.884 L66.72,5.235 C66.72,3.591 66.594,3.317 65.73,3.254 L65.288,3.212 C65.183,3.149 65.225,2.875 65.33,2.812 C66.152,2.833 66.742,2.854 67.458,2.854 C68.111,2.854 68.701,2.833 69.418,2.812 C69.523,2.854 69.544,3.149 69.46,3.212 L69.144,3.254 C68.154,3.338 68.132,3.591 68.132,5.235 L68.132,7.047 C68.132,7.532 68.174,7.553 68.975,7.553 L73.822,7.553 C74.644,7.553 74.665,7.532 74.665,7.047 L74.665,5.235 C74.665,3.591 74.623,3.335 73.632,3.254 L73.315,3.212 C73.21,3.149 73.252,2.875 73.357,2.812 C74.137,2.854 74.706,2.854 75.401,2.854 C76.054,2.854 76.644,2.833 77.401,2.812 C77.506,2.854 77.527,3.149 77.443,3.212 L77.085,3.254 C76.095,3.338 76.073,3.591 76.073,5.235 L76.073,10.904 C76.073,12.548 76.115,12.758 77.085,12.864 L77.485,12.906 C77.59,12.969 77.548,13.243 77.443,13.306 C76.621,13.264 76.052,13.264 75.399,13.264 C74.699,13.264 74.093,13.285 73.355,13.306 C73.25,13.264 73.229,13.006 73.313,12.906 L73.629,12.864 C74.662,12.716 74.662,12.548 74.662,10.904 L74.662,8.67 C74.662,8.206 74.62,8.164 73.819,8.164 L68.953,8.165 Z" id="Path_340"></path>
                            <path d="M2.361,16.763 C3.84657652,15.6625122 5.65785941,15.0911396 7.506,15.14 C8.64445709,15.1599626 9.77646292,15.3157309 10.878,15.604 C11.0459677,15.6681424 11.2254146,15.696745 11.405,15.688 C11.426,16.131 11.51,17.332 11.679,18.488 C11.5398734,18.6162693 11.3313707,18.6335758 11.173,18.53 C10.873,17.245 10.035,15.748 7.273,15.748 C4.365,15.748 1.878,17.581 1.878,21.522 C1.878,25.505 4.407,27.722 7.547,27.722 C9.32680025,27.7866098 10.9413128,26.6848661 11.53,25.004 C11.6979159,24.9123157 11.9067152,24.946978 12.036,25.088 C11.9004476,26.0080875 11.5931087,26.8944854 11.13,27.701 C10.8996118,27.7419274 10.6738433,27.8055713 10.456,27.891 C9.47595588,28.172554 8.46260976,28.3215458 7.443,28.334 C5.77208875,28.3938944 4.12131741,27.9537815 2.702,27.07 C0.973683826,25.8988689 -0.0428818536,23.9312495 0.002,21.844 C-0.0620186657,19.872051 0.813322304,17.9866727 2.361,16.763 Z" id="Path_341"></path>
                            <path d="M12.793,22.895 C12.8011994,21.3665926 13.4337615,19.9079488 14.5439489,18.8574346 C15.6541364,17.8069204 17.1454698,17.2558295 18.672,17.332 C22.486,17.332 24.404,19.966 24.404,22.727 C24.3999589,24.2250931 23.7870853,25.6571792 22.7061197,26.6943931 C21.6251542,27.7316071 20.1689822,28.284823 18.672,28.227 C15.006,28.248 12.793,25.74 12.793,22.895 Z M22.761,23.232 C22.761,20.64 21.561,17.837 18.399,17.837 C16.671,17.837 14.458,18.954 14.458,22.41 C14.458,24.749 15.638,27.763 18.904,27.763 C20.885,27.742 22.761,26.332 22.761,23.232 Z" id="Path_342"></path>
                            <path d="M43.054,21.543 C43.1098674,20.4447169 43.0033875,19.3442003 42.738,18.277 C42.5166736,18.0514482 42.2108194,17.9291791 41.895,17.94 L41.473,17.919 C41.4276211,17.863448 41.406503,17.7919734 41.4144037,17.7206793 C41.4223043,17.6493852 41.4585592,17.5842685 41.515,17.54 C42.147,17.561 42.758,17.582 43.415,17.582 C44.115,17.582 44.574,17.561 45.164,17.54 C45.2199739,17.5845894 45.2558733,17.6496447 45.2637555,17.7207725 C45.2716378,17.7919003 45.2508531,17.8632371 45.206,17.919 L44.806,17.94 C44.4791344,17.9164711 44.1623475,18.0588937 43.963,18.319 C43.7580745,19.3725639 43.6801855,20.446895 43.731,21.519 L43.731,23.289 C43.845252,24.6422723 43.4297349,25.9870563 42.572,27.04 C41.6991097,27.819929 40.5600184,28.2348274 39.39,28.199 C38.2831437,28.2662127 37.1855083,27.9621546 36.271,27.335 C35.386,26.635 34.964,25.502 34.964,23.626 L34.964,19.917 C34.964,18.273 34.922,18.017 33.974,17.936 L33.552,17.915 C33.447,17.852 33.489,17.578 33.594,17.536 C34.437,17.557 35.006,17.578 35.659,17.578 C36.333,17.578 36.902,17.557 37.703,17.536 C37.808,17.578 37.829,17.852 37.745,17.915 L37.345,17.936 C36.376,18.02 36.355,18.273 36.355,19.917 L36.355,23.31 C36.355,25.839 37.198,27.504 39.748,27.504 C42.171,27.504 43.078,25.713 43.078,23.31 L43.078,21.543 L43.054,21.543 Z" id="Path_343"></path>
                            <path d="M62.441,19.586 C62.441,18.406 62.378,18.111 61.535,18.048 L60.945,17.985 C60.882,17.922 60.84,17.606 60.966,17.606 C61.956,17.522 63.221,17.48 64.928,17.48 C65.9802532,17.4259174 67.0330114,17.5763599 68.028,17.923 C68.8702581,18.2143955 69.4309015,19.0128387 69.419,19.904 C69.419,21.042 68.639,21.632 67.543,22.075 C67.543,22.244 67.691,22.286 67.901,22.307 C69.2650694,22.4631547 70.3118202,23.5901309 70.367,24.962 C70.367,26.816 68.787,28.039 65.457,28.039 C64.93,28.039 64.024,27.997 63.244,27.997 C62.422,27.997 61.811,28.039 61.116,28.039 C60.9962995,27.938875 60.9777071,27.7618043 61.074,27.639 L61.411,27.597 C62.38,27.45 62.422,27.281 62.422,25.616 L62.422,19.589 L62.441,19.586 Z M63.958,21.693 C63.958,22.136 63.979,22.178 64.906,22.136 C66.781,22.073 67.793,21.588 67.793,20.092 C67.793,18.533 66.444,17.943 65.053,17.943 C64.7681026,17.9305421 64.4831367,17.9660361 64.21,18.048 C64.02,18.09 63.957,18.174 63.957,18.469 L63.958,21.693 Z M63.958,25.381 C63.8951395,25.9827739 64.0280528,26.5887742 64.337,27.109 C64.7448427,27.4415832 65.2669978,27.6006718 65.791,27.552 C67.435,27.552 68.678,26.92 68.678,25.318 C68.678,24.054 67.94,22.6 65.011,22.6 C64.021,22.6 63.936,22.705 63.936,23.021 L63.936,25.379 L63.958,25.381 Z" id="Path_344"></path>
                            <g id="Group_7" transform="translate(21.920000, 2.686000)">
                                <path d="M10.472,10.221 L10.029,10.179 C9.94994939,10.1771863 9.87166934,10.1630149 9.797,10.137 C9.165,10.032 8.912,9.463 8.597,8.937 L7.079,6.3 C6.826,5.857 6.531,5.267 5.941,5.183 C7.479,4.993 8.891,4.108 8.891,2.57 C8.891,0.8 7.142,-0.001 5.372,-0.001 C4.318,-0.001 3.349,0.02 2.253,0.02 C1.663,0.02 0.946,-0.001 0.353,-0.001 C0.016,-0.001 0.016,0.062 0.016,0.252 C0.016,0.526 0.121,0.442 0.48,0.463 C1.744,0.526 1.702,0.779 1.702,1.854 L1.702,8.745 C1.702,9.735 1.786,10.03 0.754,10.115 C0.754,10.115 0.585,10.136 0.501,10.136 L0.058,10.178 C-0.0326841386,10.3023655 -0.0145383196,10.4751828 0.1,10.578 C0.332,10.578 0.753,10.557 0.753,10.557 C1.322,10.536 1.891,10.494 2.481,10.494 C3.05,10.494 3.619,10.536 4.167,10.557 L4.167,10.557 C4.378,10.557 4.588,10.578 4.82,10.578 C4.93970046,10.477875 4.95829288,10.3008043 4.862,10.178 L4.419,10.136 C4.335,10.136 4.166,10.115 4.166,10.115 C3.112,10.052 3.176,9.757 3.176,8.745 L3.176,6.174 C3.176,6.026 3.155,5.626 3.26,5.5 C3.344,5.395 3.513,5.416 3.66,5.416 C5.072,5.416 5.051,5.542 5.725,6.723 L7.558,10.01 C7.706,10.263 7.811,10.579 8.19,10.579 L9.771,10.579 C9.961,10.579 10.193,10.6 10.424,10.6 C10.556,10.558 10.577,10.326 10.472,10.221 Z M4.108,5.058 C3.792,5.058 3.16,5.184 3.16,4.758 L3.16,1.728 C3.16,0.548 3.202,0.379 4.614,0.379 C6.279,0.379 7.29,1.222 7.29,2.779 C7.31603715,3.46476149 6.99023148,4.11637283 6.426,4.507 C5.72815398,4.92501486 4.91829054,5.11744037 4.107,5.058 L4.108,5.058 Z" id="Path_345"></path>
                            </g>
                            <g id="Group_9" transform="translate(24.723000, 17.437000)">
                                <path d="M1.642,2.571 C1.642,0.927 1.6,0.671 0.525,0.59 L0.082,0.548 C-0.023,0.485 0.019,0.211 0.124,0.148 C1.093,0.19 1.683,0.19 2.379,0.19 C3.053,0.19 3.643,0.169 4.507,0.148 C4.612,0.19 4.655,0.485 4.549,0.548 L4.128,0.59 C3.116,0.674 3.074,0.927 3.074,2.571 L3.074,8.048 C3.074,9.038 3.116,9.439 3.432,9.755 C3.622,9.924 3.959,10.113 5.332,10.113 C6.807,10.113 7.165,10.05 7.439,9.902 C7.96121993,9.50342136 8.35654184,8.96185119 8.577,8.343 C8.682,8.259 9.02,8.322 9.02,8.427 C8.84820946,9.18737447 8.6009851,9.92871255 8.282,10.64 C7.397,10.619 5.753,10.598 3.962,10.598 L2.362,10.598 C1.624,10.598 1.077,10.619 0.107,10.64 C-0.0127004637,10.539875 -0.0312928807,10.3628043 0.065,10.24 L0.592,10.198 C1.604,10.114 1.625,9.882 1.625,8.238 L1.625,2.569 L1.642,2.571 Z" id="Path_346"></path>
                                <path d="M48.024,2.592 C48.024,0.927 47.982,0.653 46.991,0.569 L46.569,0.527 C46.464,0.464 46.506,0.19 46.611,0.127 C47.454,0.169 48.044,0.169 48.76,0.169 C49.434,0.169 50.024,0.148 50.867,0.127 C50.972,0.169 50.993,0.464 50.909,0.527 L50.488,0.569 C49.476,0.653 49.455,0.906 49.455,2.592 L49.455,8.197 C49.455,9.862 49.497,10.097 50.488,10.197 L50.909,10.239 C51.014,10.302 50.972,10.576 50.867,10.639 C50.024,10.618 49.434,10.597 48.76,10.597 C48.044,10.597 47.475,10.618 46.611,10.639 C46.506,10.597 46.485,10.339 46.569,10.239 L46.991,10.197 C48.002,10.092 48.024,9.86 48.024,8.197 L48.024,2.592 Z" id="Path_347"></path>
                                <path d="M34.453,10.2 C34.369,10.2 34.2,10.179 34.2,10.179 C34.0254808,10.1838204 33.8570171,10.1148374 33.736,9.989 C33.5630956,9.62854915 33.4902216,9.22826022 33.525,8.83 L33.525,1.918 C33.525,1.618 33.462,0.97 33.672,0.738 C33.8277809,0.617884067 34.0249298,0.564639468 34.22,0.59 L34.22,0.59 C34.2979462,0.594502801 34.3761293,0.587425882 34.452,0.569 L34.895,0.548 C35,0.485 34.958,0.211 34.853,0.148 C34.621,0.148 34.41,0.148 34.2,0.169 L32.346,0.169 C32.135,0.169 31.967,0.169 31.84,0.38 L28.047,8.261 L24.696,0.654 C24.591,0.38 24.57,0.169 24.211,0.169 L22.311,0.169 C22.1,0.169 21.89,0.169 21.658,0.148 C21.553,0.19 21.51,0.485 21.616,0.548 L22.059,0.569 C22.143,0.569 22.312,0.59 22.312,0.59 C23.029,0.632 23.092,0.801 23.012,1.559 L22.443,8.959 C22.401,9.697 22.359,10.097 21.579,10.159 C21.579,10.159 21.41,10.18 21.326,10.18 L20.883,10.222 C20.7923159,10.3463655 20.8104617,10.5191828 20.925,10.622 C21.157,10.622 21.557,10.601 21.557,10.601 C21.957,10.58 22.357,10.538 22.757,10.538 C23.2,10.538 23.621,10.58 24.064,10.601 L24.064,10.601 C24.275,10.601 24.485,10.622 24.717,10.622 C24.8367005,10.521875 24.8552929,10.3448043 24.759,10.222 L24.316,10.18 C24.231335,10.1778339 24.1468635,10.1708224 24.063,10.159 C22.946,10.075 22.963,9.295 23.03,8.326 L23.557,1.456 L23.683,1.456 L27.308,9.927 C27.35,10.053 27.392,10.243 27.582,10.243 C27.751,10.243 27.793,10.053 27.856,9.943 L31.923,1.261 L32.049,1.261 L32.049,8.826 C32.049,9.126 32.091,9.753 31.775,9.985 C31.5540841,10.0874462 31.3173958,10.1516902 31.075,10.175 C30.9991269,10.1934113 30.9209459,10.200488 30.843,10.196 L30.4,10.238 C30.3093159,10.3623655 30.3274617,10.5351828 30.442,10.638 C30.674,10.638 31.074,10.617 31.074,10.617 C31.664,10.596 32.274,10.554 32.865,10.554 C33.308,10.554 34.15,10.596 34.15,10.596 C34.361,10.596 34.571,10.617 34.824,10.638 C34.9437005,10.537875 34.9622929,10.3608043 34.866,10.238 L34.453,10.2 Z" id="Path_348"></path>
                                <g id="Group_8" transform="translate(51.904000, 0.000000)">
                                    <path d="M10.935,10.242 L10.872,10.2 C10.7929477,10.1982027 10.7146651,10.1840309 10.64,10.158 C9.966,10.01 9.692,9.189 9.44,8.599 L5.94,0.317 C5.898,0.212 5.835,0.001 5.687,0.001 C5.497,0.001 5.434,0.233 5.387,0.359 L2.036,8.641 C1.86969254,9.10048889 1.65055636,9.53909683 1.383,9.948 C1.20665149,10.0980736 0.982561608,10.1803345 0.751,10.18 C0.751,10.18 0.561,10.201 0.477,10.201 L0.056,10.243 C-0.0346841386,10.3673655 -0.0165383196,10.5401828 0.098,10.643 C0.33,10.643 0.751,10.622 0.751,10.622 C1.215,10.622 1.657,10.559 2.121,10.559 C2.5,10.559 2.901,10.601 3.28,10.622 C3.28,10.622 3.702,10.643 3.933,10.643 C4.05220507,10.5426116 4.07075359,10.365959 3.975,10.243 L3.532,10.201 C3.45434936,10.1981133 3.37690689,10.1911034 3.3,10.18 C2.9,10.138 2.394,10.054 2.394,9.611 C2.42330926,9.29626971 2.50900786,8.98938065 2.647,8.705 L3.174,7.462 C3.427,6.872 3.321,6.809 4.017,6.809 L6.377,6.809 C7.199,6.809 7.094,6.809 7.452,7.652 L8,8.916 C8.12509845,9.16801823 8.21044174,9.43787844 8.253,9.716 C8.253,10.137 7.81,10.159 7.368,10.201 C7.28413604,10.2128181 7.19966475,10.2198295 7.115,10.222 L6.693,10.243 C6.60231586,10.3673655 6.62046168,10.5401828 6.735,10.643 C6.967,10.643 7.388,10.622 7.388,10.622 C7.873,10.601 8.378,10.559 8.863,10.559 C9.474,10.559 10.085,10.601 10.675,10.622 L10.675,10.622 C10.865,10.622 10.696,10.643 10.928,10.643 C10.9991098,10.579 11.041,10.326 10.935,10.242 Z M6.341,6.342 L4.297,6.342 C4.234,6.342 3.665,6.405 3.665,6.237 C3.67636726,6.17086926 3.69760422,6.10682128 3.728,6.047 L4.95,3.012 C4.992,2.928 5.119,2.506 5.25,2.506 C5.355,2.506 5.503,2.949 5.524,3.012 L6.724,5.857 C6.724,5.899 6.85,6.157 6.85,6.215 C6.847,6.385 6.447,6.343 6.341,6.343 L6.341,6.342 Z" id="Path_349"></path>
                                </g>
                            </g>
                        </g>
                    </g>
                </g>
                <path d="M8.979,34.043 C18.399,34.043 31.422,39.353 40.879,39.353 C47.622,39.353 54.218,37.562 57.948,34.907 C58.2093432,33.3256321 58.3431076,31.7258102 58.3485022,30.123 C58.4087204,19.8436152 52.9595691,10.3189843 44.0673428,5.1616836 C35.1751165,0.00438292434 24.2018835,0.00438292434 15.3096572,5.1616836 C6.41743085,10.3189843 0.968279587,19.8436152 1.02849779,30.123 C1.02421283,31.7121726 1.15973897,33.2986651 1.434,34.864 C3.92021251,34.3706134 6.44485619,34.0958974 8.979,34.043 Z" id="Path_350" fill="#FFFFFF"></path>
                <g id="Group_15" transform="translate(1.308000, 0.148000)" fill="#FDB913">
                    <polygon id="Path_351" points="46.909 23.337 48.026 23.801 50.555 22.052"></polygon>
                    <path d="M4.657,21.378 L1.686,20.324 L1.834,19.966 L5.185,21.083 L5.206,21.083 L5.649,20.83 L5.818,20.725 L2.149,19.165 L2.297,18.786 L10.497,22.073 L10.771,21.968 L2.655,18.027 L2.845,17.648 L11.422,21.648 L11.548,21.585 L3.224,16.865 L3.393,16.507 L15.4,23.043 C15.505,22.853 15.7,22.537 15.8,22.343 C12.9455152,19.6752894 9.94880324,17.1639533 6.823,14.82 C10.0917243,16.9570013 13.4755004,18.9126209 16.959,20.678 C17.149,20.446 17.296,20.257 17.486,20.046 L7.249,11.031 L7.523,10.757 L15.805,17.817 L8.134,10.125 L8.434,9.825 L17.034,18.149 L9.019,9.261 L9.335,8.987 L16.735,16.911 L9.968,8.4 L10.268,8.126 L18.929,18.663 C19.161,18.473 19.329,18.326 19.582,18.136 C17.9451157,14.6088547 16.1150049,11.1746427 14.1,7.849 C16.3218409,11.0379375 18.7136304,14.1050361 21.265,17.037 C21.518,16.889 21.771,16.763 22.024,16.637 L21.982,16.616 L15.889,4.5 L16.247,4.331 L21.284,13.962 L17.048,3.992 L17.427,3.823 L22.3,14.761 L18.186,3.508 L18.565,3.36 L22.465,13.496 L19.409,3.065 L19.788,2.939 L23.834,15.878 L23.834,15.92 L23.834,15.92 L24.656,15.667 C24.4512716,11.8058814 24.0433735,7.95822134 23.434,4.14 C24.2921415,7.91084595 25.3543713,11.6323223 26.616,15.288 C26.89,15.246 27.185,15.225 27.48,15.204 L27.48,15.183 L27.522,15.183 L27.501,15.162 L26.363,1.632 L26.763,1.611 L27.817,12.443 L27.627,1.59 L28.048,1.569 L28.469,13.539 L28.892,1.569 L29.313,1.59 L29.123,12.443 L30.177,1.611 L30.577,1.632 L29.477,15.14 L29.456,15.161 L29.477,15.161 C29.751,15.182 30.046,15.203 30.32,15.245 C31.5846666,11.5973006 32.6485934,7.88307103 33.507,4.119 C32.8967854,7.93006532 32.4888805,11.7707798 32.285,15.625 C32.5645889,15.6899714 32.8392656,15.7745131 33.107,15.878 L37.153,2.978 L37.532,3.104 L34.455,13.539 L38.353,3.4 L38.732,3.548 L34.645,14.8 L39.512,3.866 L39.891,4.035 L35.591,14.024 L40.628,4.393 L40.986,4.562 L34.94,16.636 L34.94,16.636 C35.193,16.762 35.425,16.889 35.678,17.015 C38.2152127,14.0973593 40.5926883,11.044563 42.8,7.87 C40.7950994,11.1742684 38.9730269,14.586064 37.342,18.09 C37.5758598,18.2610598 37.8008202,18.4439652 38.016,18.638 L46.572,8.207 L46.872,8.481 L40.1,16.995 L47.5,9.071 L47.816,9.345 L39.808,18.238 L48.408,9.914 L48.708,10.214 L41.03,17.88 L49.312,10.82 L49.586,11.094 L39.449,20.008 L39.449,20.008 C39.618,20.198 39.786,20.408 39.955,20.619 C43.4107207,18.8667571 46.766546,16.9241042 50.007,14.8 C46.9064694,17.1280823 43.9309961,19.6182137 41.093,22.26 C41.219,22.471 41.409,22.829 41.536,23.04 L53.379,16.592 L53.548,16.95 L44.086,22.324 L53.927,17.751 L54.117,18.13 L44.949,22.6 L45.118,22.663 L54.432,18.891 L54.58,19.27 L45.919,22.958 L46.088,23.021 L51.861,21.1 L52.725,20.489 L53.025,20.7 L54.925,20.068 L55.073,20.426 L53.421,21 L55.8,22.811 L56.559,23.232 C53.4013913,10.058636 41.5444254,0.826302878 27.9989498,0.993941939 C14.4534742,1.161581 2.82862389,10.6845255 -0.002,23.932 C0.04,23.911 0.061,23.89 0.103,23.89 L0.461,23.742 L0.672,23.637 L4.657,21.378 Z" id="Path_352"></path>
                </g>
                <path d="M1.14,35.456 C3.73127037,34.9489789 6.3604673,34.6599679 9,34.592 C18.42,34.592 31.443,39.902 40.9,39.902 C47.833,39.902 54.6,38.002 58.285,35.224 C58.5824597,33.5544852 58.7307115,31.861805 58.7280365,30.166 C58.7307061,27.8803182 58.4621617,25.6023906 57.928,23.38 L53.992,21.189 L49.377,24.434 L46.258,23.234 C45.204,23.761 38.714,28.102 38.714,28.102 L36.227,26.289 L33.555,25.762 L29.994,23.17 L25.906,25.97 C25.906,25.97 21.333,28.625 21.186,28.625 C21.039,28.625 15.686,24.389 15.686,24.389 L13.178,21.797 C12.757,22.071 11.071,22.83 11.071,22.83 L10.987,22.851 L9.355,22.348 L7.377,21.294 L1.414,24.034 C1.372,24.055 1.351,24.076 1.309,24.076 C0.49874415,27.8206131 0.441296552,31.688978 1.14,35.456 L1.14,35.456 Z" id="Path_353" fill="#004B8D"></path>
            </g>
            <rect id="Rectangle" fill="#FCBA19" x="160" y="0" width="1" height="48"></rect>
        </g>
    </g>
</svg>